<svg xmlns="http://www.w3.org/2000/svg">
	<defs>
		<!-- GitHub -->
		<symbol id="github" viewBox="0 0 256 256">
			<path d="M216,104v8a56.06,56.06,0,0,1-48.44,55.47A39.8,39.8,0,0,1,176,192v40a8,8,0,0,1-8,8H104a8,8,0,0,1-8-8V216H72a40,40,0,0,1-40-40A24,24,0,0,0,8,152a8,8,0,0,1,0-16,40,40,0,0,1,40,40,24,24,0,0,0,24,24H96v-8a39.8,39.8,0,0,1,8.44-24.53A56.06,56.06,0,0,1,56,112v-8a58.14,58.14,0,0,1,7.69-28.32A59.78,59.78,0,0,1,69.07,28,8,8,0,0,1,76,24a59.75,59.75,0,0,1,48,24h24a59.75,59.75,0,0,1,48-24,8,8,0,0,1,6.93,4,59.74,59.74,0,0,1,5.37,47.68A58,58,0,0,1,216,104Z"/>
		</symbol>

		<!-- Discord -->
		<symbol id="discord" viewBox="0 0 256 256">
			<path d="M247.51,174.39,218,58a16.08,16.08,0,0,0-13-11.88l-36.06-5.92a16.22,16.22,0,0,0-18.26,11.88l-.21.85a4,4,0,0,0,3.27,4.93,155.62,155.62,0,0,1,24.41,5.62,8.2,8.2,0,0,1,5.62,9.7,8,8,0,0,1-10.19,5.64,155.4,155.4,0,0,0-90.8-.1,8.22,8.22,0,0,1-10.28-4.81,8,8,0,0,1,5.08-10.33,156.85,156.85,0,0,1,24.72-5.72,4,4,0,0,0,3.27-4.93l-.21-.85A16.21,16.21,0,0,0,87.08,40.21L51,46.13A16.08,16.08,0,0,0,38,58L8.49,174.39a15.94,15.94,0,0,0,9.06,18.51l67,29.71a16.17,16.17,0,0,0,21.71-9.1l3.49-9.45a4,4,0,0,0-3.27-5.35,158.13,158.13,0,0,1-28.63-6.2,8.2,8.2,0,0,1-5.61-9.67,8,8,0,0,1,10.2-5.66,155.59,155.59,0,0,0,91.12,0,8,8,0,0,1,10.19,5.65,8.19,8.19,0,0,1-5.61,9.68,157.84,157.84,0,0,1-28.62,6.2,4,4,0,0,0-3.27,5.35l3.49,9.45a16.18,16.18,0,0,0,21.71,9.1l67-29.71A15.94,15.94,0,0,0,247.51,174.39ZM92,152a12,12,0,1,1,12-12A12,12,0,0,1,92,152Zm72,0a12,12,0,1,1,12-12A12,12,0,0,1,164,152Z"/>
		</symbol>
	</defs>
</svg>