<svg xmlns="http://www.w3.org/2000/svg">
	<defs>
		<!-- GitHub -->
		<symbol id="github" viewBox="0 0 256 256">
			<rect width="256" height="256" fill="none"/>
			<path d="M119.83,56A52,52,0,0,0,76,32a51.92,51.92,0,0,0-3.49,44.7A49.28,49.28,0,0,0,64,104v8a48,48,0,0,0,48,48h48a48,48,0,0,0,48-48v-8a49.28,49.28,0,0,0-8.51-27.3A51.92,51.92,0,0,0,196,32a52,52,0,0,0-43.83,24Z" fill="none" stroke="currentColor" stroke-linecap="round" stroke-linejoin="round" stroke-width="16"/>
			<path d="M104,232V192a32,32,0,0,1,32-32h0a32,32,0,0,1,32,32v40" fill="none" stroke="currentColor" stroke-linecap="round" stroke-linejoin="round" stroke-width="16"/>
			<path d="M104,208H72a32,32,0,0,1-32-32A32,32,0,0,0,8,144" fill="none" stroke="currentColor" stroke-linecap="round" stroke-linejoin="round" stroke-width="16"/>
		</symbol>

		<!-- Discord -->
		<symbol id="discord" viewBox="0 0 256 256">
			<circle cx="92" cy="140" r="12"/>
			<circle cx="164" cy="140" r="12"/>
			<path d="M153.44,73.69l5-19.63a8.1,8.1,0,0,1,9.21-6L203.69,54A8.08,8.08,0,0,1,210.23,60l29.53,116.37a8,8,0,0,1-4.55,9.24l-67,29.7a8.15,8.15,0,0,1-11-4.56L147,183.06" fill="none" stroke="currentColor" stroke-linecap="round" stroke-linejoin="round" stroke-width="16"/>
			<path d="M102.56,73.69l-5-19.63a8.1,8.1,0,0,0-9.21-6L52.31,54A8.08,8.08,0,0,0,45.77,60L16.24,176.35a8,8,0,0,0,4.55,9.24l67,29.7a8.15,8.15,0,0,0,11-4.56L109,183.06" fill="none" stroke="currentColor" stroke-linecap="round" stroke-linejoin="round" stroke-width="16"/>
			<path d="M80,78.31A178.94,178.94,0,0,1,128,72a178.94,178.94,0,0,1,48,6.31" fill="none" stroke="currentColor" stroke-linecap="round" stroke-linejoin="round" stroke-width="16"/>
			<path d="M176,177.69A178.94,178.94,0,0,1,128,184a178.94,178.94,0,0,1-48-6.31" fill="none" stroke="currentColor" stroke-linecap="round" stroke-linejoin="round" stroke-width="16"/>
		</symbol>
	</defs>
</svg>