<svg xmlns="http://www.w3.org/2000/svg">
	<defs>
		<!-- menu -->
		<symbol id="menu" viewBox="0 0 24 24" fill="none" stroke-linecap="round" stroke-linejoin="round" stroke-width="1.5">
			<path d="M3 12h18"/>
			<path d="M3 6h18"/>
			<path d="M3 18h18"/>
		</symbol>

		<!-- search -->
		<symbol id="search" viewBox="0 0 256 256">
			<circle cx="112" cy="112" r="80" fill="none" stroke="currentColor" stroke-linecap="round" stroke-linejoin="round" stroke-width="16"/>
			<line x1="168.57" y1="168.57" x2="224" y2="224" fill="none" stroke="currentColor" stroke-linecap="round" stroke-linejoin="round" stroke-width="16"/>
		</symbol>

		<!-- sun -->
		<symbol id="sun" viewBox="0 0 256 256">
			<path d="M120,40V16a8,8,0,0,1,16,0V40a8,8,0,0,1-16,0Zm8,24a64,64,0,1,0,64,64A64.07,64.07,0,0,0,128,64ZM58.34,69.66A8,8,0,0,0,69.66,58.34l-16-16A8,8,0,0,0,42.34,53.66Zm0,116.68-16,16a8,8,0,0,0,11.32,11.32l16-16a8,8,0,0,0-11.32-11.32ZM192,72a8,8,0,0,0,5.66-2.34l16-16a8,8,0,0,0-11.32-11.32l-16,16A8,8,0,0,0,192,72Zm5.66,114.34a8,8,0,0,0-11.32,11.32l16,16a8,8,0,0,0,11.32-11.32ZM48,128a8,8,0,0,0-8-8H16a8,8,0,0,0,0,16H40A8,8,0,0,0,48,128Zm80,80a8,8,0,0,0-8,8v24a8,8,0,0,0,16,0V216A8,8,0,0,0,128,208Zm112-88H216a8,8,0,0,0,0,16h24a8,8,0,0,0,0-16Z"/>
		</symbol>

		<!-- moon -->
		<symbol id="moon" viewBox="0 0 256 256">
			<path d="M240,96a8,8,0,0,1-8,8H216v16a8,8,0,0,1-16,0V104H184a8,8,0,0,1,0-16h16V72a8,8,0,0,1,16,0V88h16A8,8,0,0,1,240,96ZM144,56h8v8a8,8,0,0,0,16,0V56h8a8,8,0,0,0,0-16h-8V32a8,8,0,0,0-16,0v8h-8a8,8,0,0,0,0,16Zm65.14,94.33A88.07,88.07,0,0,1,105.67,46.86a8,8,0,0,0-10.6-9.06A96,96,0,1,0,218.2,160.93a8,8,0,0,0-9.06-10.6Z" />
		</symbol>

		<!-- author -->
		<symbol id="author" viewBox="0 0 256 256">
			<path d="M92.69,216H48a8,8,0,0,1-8-8V163.31a8,8,0,0,1,2.34-5.65L165.66,34.34a8,8,0,0,1,11.31,0L221.66,79a8,8,0,0,1,0,11.31L98.34,213.66A8,8,0,0,1,92.69,216Z" fill="none" stroke="currentColor" stroke-linecap="round" stroke-linejoin="round" stroke-width="16"/>
			<line x1="136" y1="64" x2="192" y2="120" fill="none" stroke="currentColor" stroke-linecap="round" stroke-linejoin="round" stroke-width="16"/>
			<line x1="164" y1="92" x2="68" y2="188" fill="none" stroke="currentColor" stroke-linecap="round" stroke-linejoin="round" stroke-width="16"/>
			<line x1="95.49" y1="215.49" x2="40.51" y2="160.51" fill="none" stroke="currentColor" stroke-linecap="round" stroke-linejoin="round" stroke-width="16"/>
		</symbol>
	</defs>
</svg>