<svg xmlns="http://www.w3.org/2000/svg">
	<defs>
		<!-- menu -->
		<symbol id="menu" viewBox="0 0 24 24" fill="none" stroke-linecap="round" stroke-linejoin="round" stroke-width="1.5">
			<path d="M3 12h18"/>
			<path d="M3 6h18"/>
			<path d="M3 18h18"/>
		</symbol>

		<!-- x -->
		<symbol id="x" viewBox="0 0 24 24" fill="none" stroke-linecap="round" stroke-linejoin="round" stroke-width="1.5">
			<path d="M18 6L6 18"/>
			<path d="M6 6l12 12"/>
		</symbol>

		<!-- search -->
		<symbol id="search" viewBox="0 0 256 256">
			<circle cx="112" cy="112" r="80" fill="none" stroke="currentColor" stroke-linecap="round" stroke-linejoin="round" stroke-width="16"/>
			<line x1="168.57" y1="168.57" x2="224" y2="224" fill="none" stroke="currentColor" stroke-linecap="round" stroke-linejoin="round" stroke-width="16"/>
		</symbol>

		<!-- rss -->
		<symbol id="rss" viewBox="0 0 256 256">
			<path d="M64,40A152,152,0,0,1,216,192" fill="none" stroke="currentColor" stroke-linecap="round" stroke-linejoin="round" stroke-width="16"/>
			<path d="M64,112a80,80,0,0,1,80,80" fill="none" stroke="currentColor" stroke-linecap="round" stroke-linejoin="round" stroke-width="16"/>
			<circle cx="68" cy="188" r="12"/>
		</symbol>

		<!-- sun -->
		<symbol id="sun" viewBox="0 0 256 256">
			<line x1="128" y1="40" x2="128" y2="16" fill="none" stroke="currentColor" stroke-linecap="round" stroke-linejoin="round" stroke-width="16"/>
			<circle cx="128" cy="128" r="56" fill="none" stroke="currentColor" stroke-linecap="round" stroke-linejoin="round" stroke-width="16"/>
			<line x1="64" y1="64" x2="48" y2="48" fill="none" stroke="currentColor" stroke-linecap="round" stroke-linejoin="round" stroke-width="16"/>
			<line x1="64" y1="192" x2="48" y2="208" fill="none" stroke="currentColor" stroke-linecap="round" stroke-linejoin="round" stroke-width="16"/>
			<line x1="192" y1="64" x2="208" y2="48" fill="none" stroke="currentColor" stroke-linecap="round" stroke-linejoin="round" stroke-width="16"/>
			<line x1="192" y1="192" x2="208" y2="208" fill="none" stroke="currentColor" stroke-linecap="round" stroke-linejoin="round" stroke-width="16"/>
			<line x1="40" y1="128" x2="16" y2="128" fill="none" stroke="currentColor" stroke-linecap="round" stroke-linejoin="round" stroke-width="16"/>
			<line x1="128" y1="216" x2="128" y2="240" fill="none" stroke="currentColor" stroke-linecap="round" stroke-linejoin="round" stroke-width="16"/>
			<line x1="216" y1="128" x2="240" y2="128" fill="none" stroke="currentColor" stroke-linecap="round" stroke-linejoin="round" stroke-width="16"/>
		</symbol>

		<!-- moon -->
		<symbol id="moon" viewBox="0 0 256 256">
			<path d="M240,96a8,8,0,0,1-8,8H216v16a8,8,0,0,1-16,0V104H184a8,8,0,0,1,0-16h16V72a8,8,0,0,1,16,0V88h16A8,8,0,0,1,240,96ZM144,56h8v8a8,8,0,0,0,16,0V56h8a8,8,0,0,0,0-16h-8V32a8,8,0,0,0-16,0v8h-8a8,8,0,0,0,0,16Zm65.14,94.33A88.07,88.07,0,0,1,105.67,46.86a8,8,0,0,0-10.6-9.06A96,96,0,1,0,218.2,160.93a8,8,0,0,0-9.06-10.6Z" />
		</symbol>

		<!-- author -->
		<symbol id="author" viewBox="0 0 256 256">
			<path d="M92.69,216H48a8,8,0,0,1-8-8V163.31a8,8,0,0,1,2.34-5.65L165.66,34.34a8,8,0,0,1,11.31,0L221.66,79a8,8,0,0,1,0,11.31L98.34,213.66A8,8,0,0,1,92.69,216Z" fill="none" stroke="currentColor" stroke-linecap="round" stroke-linejoin="round" stroke-width="16"/>
			<line x1="136" y1="64" x2="192" y2="120" fill="none" stroke="currentColor" stroke-linecap="round" stroke-linejoin="round" stroke-width="16"/>
			<line x1="164" y1="92" x2="68" y2="188" fill="none" stroke="currentColor" stroke-linecap="round" stroke-linejoin="round" stroke-width="16"/>
			<line x1="95.49" y1="215.49" x2="40.51" y2="160.51" fill="none" stroke="currentColor" stroke-linecap="round" stroke-linejoin="round" stroke-width="16"/>
		</symbol>
	</defs>
</svg>